<svg xmlns="http://www.w3.org/2000/svg" xmlns:xlink="http://www.w3.org/1999/xlink" width="500" zoomAndPan="magnify" viewBox="0 0 375 374.999991" height="500" preserveAspectRatio="xMidYMid meet" version="1.0"><defs><g/></defs><rect x="-37.5" width="450" fill="#ffffff" y="-37.499999" height="449.999989" fill-opacity="1"/><rect x="-37.5" width="450" fill="#ffffff" y="-37.499999" height="449.999989" fill-opacity="1"/><rect x="-37.5" width="450" fill="#fbfaf9" y="-37.499999" height="449.999989" fill-opacity="1"/><g fill="#231f20" fill-opacity="1"><g transform="translate(44.002934, 221.45316)"><g><path d="M 50.371094 -16.191406 L 47.109375 -9.105469 C 44.75 -4.046875 41.375 -2.472656 32.941406 -2.472656 L 21.925781 -2.472656 C 18.664062 -2.472656 18.777344 -3.597656 18.777344 -7.53125 L 18.777344 -62.511719 C 18.777344 -66.449219 20.914062 -67.460938 26.648438 -68.132812 L 26.648438 -69.820312 C 18.886719 -69.484375 10.570312 -69.484375 2.8125 -69.820312 L 2.8125 -68.132812 C 8.542969 -67.460938 10.679688 -66.449219 10.679688 -62.511719 L 10.679688 -7.308594 C 10.679688 -3.371094 8.769531 -2.136719 3.035156 -1.6875 L 3.035156 0 L 49.246094 0 C 50.03125 -5.507812 50.707031 -10.34375 52.507812 -16.191406 Z M 50.371094 -16.191406 "/></g></g></g><g fill="#231f20" fill-opacity="1"><g transform="translate(92.010163, 221.45316)"><g><path d="M 70.15625 -6.519531 L 70.15625 -63.523438 C 70.15625 -66.449219 72.292969 -67.460938 77.691406 -68.132812 L 77.691406 -69.820312 C 72.855469 -69.484375 67.121094 -69.484375 62.175781 -69.820312 L 41.601562 -13.15625 L 19 -69.820312 C 13.15625 -69.484375 8.207031 -69.484375 2.472656 -69.820312 L 2.472656 -68.132812 C 8.207031 -67.460938 10.792969 -66.558594 10.792969 -63.300781 L 10.792969 -6.519531 C 10.792969 -2.699219 8.769531 -2.472656 1.6875 -1.6875 L 1.6875 0 C 8.65625 -0.335938 15.851562 -0.335938 23.046875 0 L 23.046875 -1.6875 C 16.191406 -2.472656 13.828125 -2.699219 13.828125 -6.519531 L 13.828125 -61.277344 L 38.113281 0 L 39.464844 0 L 62.175781 -61.277344 L 62.175781 -6.519531 C 62.175781 -2.699219 60.039062 -2.359375 54.191406 -1.6875 L 54.191406 0 C 61.949219 -0.335938 70.382812 -0.335938 78.027344 0 L 78.027344 -1.6875 C 72.292969 -2.359375 70.15625 -2.699219 70.15625 -6.519531 Z M 70.15625 -6.519531 "/></g></g></g><path stroke-linecap="butt" transform="matrix(0.748857, 0, 0, 0.75, 169.497241, 152.307777)" fill="none" stroke-linejoin="miter" d="M -0.00153143 1.001089 L 215.331818 1.001089 " stroke="#231f20" stroke-width="2" stroke-opacity="1" stroke-miterlimit="4"/><path stroke-linecap="butt" transform="matrix(0.749897, 0, 0, 0.75, 160.716294, 220.509595)" fill="none" stroke-linejoin="miter" d="M -0.00193386 0.997623 L 227.039746 0.997623 " stroke="#231f20" stroke-width="2" stroke-opacity="1" stroke-miterlimit="4"/><g fill="#16a34a" fill-opacity="1"><g transform="translate(178.821175, 182.406564)"><g><path d="M 15.5 -10.09375 L 12.09375 0 L 10.96875 0 L 8.015625 -8.609375 L 5.046875 0 L 3.9375 0 L 0.53125 -10.09375 L 1.625 -10.09375 L 4.546875 -1.40625 L 7.5625 -10.09375 L 8.546875 -10.09375 L 11.515625 -1.375 L 14.484375 -10.09375 Z M 15.5 -10.09375 "/></g></g></g><g fill="#16a34a" fill-opacity="1"><g transform="translate(202.766116, 182.406564)"><g><path d="M 8.78125 -0.921875 L 8.78125 0 L 1.640625 0 L 1.640625 -10.09375 L 8.5625 -10.09375 L 8.5625 -9.171875 L 2.71875 -9.171875 L 2.71875 -5.578125 L 7.9375 -5.578125 L 7.9375 -4.671875 L 2.71875 -4.671875 L 2.71875 -0.921875 Z M 8.78125 -0.921875 "/></g></g></g><g fill="#16a34a" fill-opacity="1"><g transform="translate(220.340063, 182.406564)"><g><path d="M 8 -5.203125 C 8.664062 -5.054688 9.175781 -4.769531 9.53125 -4.34375 C 9.894531 -3.914062 10.078125 -3.367188 10.078125 -2.703125 C 10.078125 -1.835938 9.753906 -1.171875 9.109375 -0.703125 C 8.472656 -0.234375 7.53125 0 6.28125 0 L 1.640625 0 L 1.640625 -10.09375 L 6 -10.09375 C 7.125 -10.09375 7.992188 -9.863281 8.609375 -9.40625 C 9.234375 -8.957031 9.546875 -8.320312 9.546875 -7.5 C 9.546875 -6.9375 9.40625 -6.460938 9.125 -6.078125 C 8.851562 -5.691406 8.476562 -5.398438 8 -5.203125 Z M 2.71875 -9.21875 L 2.71875 -5.546875 L 5.921875 -5.546875 C 6.742188 -5.546875 7.375 -5.703125 7.8125 -6.015625 C 8.257812 -6.328125 8.484375 -6.785156 8.484375 -7.390625 C 8.484375 -7.984375 8.257812 -8.4375 7.8125 -8.75 C 7.375 -9.0625 6.742188 -9.21875 5.921875 -9.21875 Z M 6.28125 -0.875 C 7.175781 -0.875 7.851562 -1.023438 8.3125 -1.328125 C 8.78125 -1.640625 9.015625 -2.125 9.015625 -2.78125 C 9.015625 -4.039062 8.101562 -4.671875 6.28125 -4.671875 L 2.71875 -4.671875 L 2.71875 -0.875 Z M 6.28125 -0.875 "/></g></g></g><g fill="#16a34a" fill-opacity="1"><g transform="translate(178.821175, 203.406563)"><g><path d="M 1.640625 -10.09375 L 5.75 -10.09375 C 6.820312 -10.09375 7.765625 -9.878906 8.578125 -9.453125 C 9.398438 -9.023438 10.035156 -8.425781 10.484375 -7.65625 C 10.929688 -6.894531 11.15625 -6.023438 11.15625 -5.046875 C 11.15625 -4.066406 10.929688 -3.191406 10.484375 -2.421875 C 10.035156 -1.660156 9.398438 -1.066406 8.578125 -0.640625 C 7.765625 -0.210938 6.820312 0 5.75 0 L 1.640625 0 Z M 5.703125 -0.921875 C 6.585938 -0.921875 7.359375 -1.09375 8.015625 -1.4375 C 8.679688 -1.789062 9.195312 -2.28125 9.5625 -2.90625 C 9.925781 -3.53125 10.109375 -4.242188 10.109375 -5.046875 C 10.109375 -5.859375 9.925781 -6.570312 9.5625 -7.1875 C 9.195312 -7.8125 8.679688 -8.296875 8.015625 -8.640625 C 7.359375 -8.992188 6.585938 -9.171875 5.703125 -9.171875 L 2.71875 -9.171875 L 2.71875 -0.921875 Z M 5.703125 -0.921875 "/></g></g></g><g fill="#16a34a" fill-opacity="1"><g transform="translate(198.658123, 203.406563)"><g><path d="M 8.78125 -0.921875 L 8.78125 0 L 1.640625 0 L 1.640625 -10.09375 L 8.5625 -10.09375 L 8.5625 -9.171875 L 2.71875 -9.171875 L 2.71875 -5.578125 L 7.9375 -5.578125 L 7.9375 -4.671875 L 2.71875 -4.671875 L 2.71875 -0.921875 Z M 8.78125 -0.921875 "/></g></g></g><g fill="#16a34a" fill-opacity="1"><g transform="translate(216.23207, 203.406563)"><g><path d="M 10.03125 -10.09375 L 5.5625 0 L 4.515625 0 L 0.046875 -10.09375 L 1.203125 -10.09375 L 5.0625 -1.328125 L 8.953125 -10.09375 Z M 10.03125 -10.09375 "/></g></g></g><g fill="#16a34a" fill-opacity="1"><g transform="translate(234.224023, 203.406563)"><g><path d="M 8.78125 -0.921875 L 8.78125 0 L 1.640625 0 L 1.640625 -10.09375 L 8.5625 -10.09375 L 8.5625 -9.171875 L 2.71875 -9.171875 L 2.71875 -5.578125 L 7.9375 -5.578125 L 7.9375 -4.671875 L 2.71875 -4.671875 L 2.71875 -0.921875 Z M 8.78125 -0.921875 "/></g></g></g><g fill="#16a34a" fill-opacity="1"><g transform="translate(251.79797, 203.406563)"><g><path d="M 1.640625 -10.09375 L 2.71875 -10.09375 L 2.71875 -0.921875 L 8.359375 -0.921875 L 8.359375 0 L 1.640625 0 Z M 1.640625 -10.09375 "/></g></g></g><g fill="#16a34a" fill-opacity="1"><g transform="translate(268.218799, 203.406563)"><g><path d="M 6.0625 0.09375 C 5.0625 0.09375 4.15625 -0.128906 3.34375 -0.578125 C 2.53125 -1.023438 1.894531 -1.640625 1.4375 -2.421875 C 0.976562 -3.203125 0.75 -4.078125 0.75 -5.046875 C 0.75 -6.015625 0.976562 -6.890625 1.4375 -7.671875 C 1.894531 -8.453125 2.53125 -9.066406 3.34375 -9.515625 C 4.15625 -9.960938 5.0625 -10.1875 6.0625 -10.1875 C 7.0625 -10.1875 7.960938 -9.960938 8.765625 -9.515625 C 9.566406 -9.078125 10.195312 -8.460938 10.65625 -7.671875 C 11.113281 -6.890625 11.34375 -6.015625 11.34375 -5.046875 C 11.34375 -4.078125 11.113281 -3.195312 10.65625 -2.40625 C 10.195312 -1.625 9.566406 -1.007812 8.765625 -0.5625 C 7.960938 -0.125 7.0625 0.09375 6.0625 0.09375 Z M 6.0625 -0.859375 C 6.851562 -0.859375 7.570312 -1.039062 8.21875 -1.40625 C 8.863281 -1.769531 9.367188 -2.269531 9.734375 -2.90625 C 10.097656 -3.539062 10.28125 -4.253906 10.28125 -5.046875 C 10.28125 -5.835938 10.097656 -6.550781 9.734375 -7.1875 C 9.367188 -7.820312 8.863281 -8.320312 8.21875 -8.6875 C 7.570312 -9.050781 6.851562 -9.234375 6.0625 -9.234375 C 5.257812 -9.234375 4.53125 -9.050781 3.875 -8.6875 C 3.226562 -8.320312 2.71875 -7.820312 2.34375 -7.1875 C 1.976562 -6.550781 1.796875 -5.835938 1.796875 -5.046875 C 1.796875 -4.253906 1.976562 -3.539062 2.34375 -2.90625 C 2.71875 -2.269531 3.226562 -1.769531 3.875 -1.40625 C 4.53125 -1.039062 5.257812 -0.859375 6.0625 -0.859375 Z M 6.0625 -0.859375 "/></g></g></g><g fill="#16a34a" fill-opacity="1"><g transform="translate(288.243132, 203.406563)"><g><path d="M 5.421875 -10.09375 C 6.710938 -10.09375 7.722656 -9.785156 8.453125 -9.171875 C 9.179688 -8.554688 9.546875 -7.710938 9.546875 -6.640625 C 9.546875 -5.554688 9.179688 -4.707031 8.453125 -4.09375 C 7.722656 -3.488281 6.710938 -3.1875 5.421875 -3.1875 L 2.71875 -3.1875 L 2.71875 0 L 1.640625 0 L 1.640625 -10.09375 Z M 5.390625 -4.125 C 6.390625 -4.125 7.15625 -4.34375 7.6875 -4.78125 C 8.21875 -5.21875 8.484375 -5.835938 8.484375 -6.640625 C 8.484375 -7.453125 8.21875 -8.078125 7.6875 -8.515625 C 7.15625 -8.953125 6.390625 -9.171875 5.390625 -9.171875 L 2.71875 -9.171875 L 2.71875 -4.125 Z M 5.390625 -4.125 "/></g></g></g><g fill="#16a34a" fill-opacity="1"><g transform="translate(306.523362, 203.406563)"><g><path d="M 8.78125 -0.921875 L 8.78125 0 L 1.640625 0 L 1.640625 -10.09375 L 8.5625 -10.09375 L 8.5625 -9.171875 L 2.71875 -9.171875 L 2.71875 -5.578125 L 7.9375 -5.578125 L 7.9375 -4.671875 L 2.71875 -4.671875 L 2.71875 -0.921875 Z M 8.78125 -0.921875 "/></g></g></g><g fill="#16a34a" fill-opacity="1"><g transform="translate(324.097309, 203.406563)"><g><path d="M 8.53125 0 L 6.234375 -3.25 C 5.972656 -3.21875 5.703125 -3.203125 5.421875 -3.203125 L 2.71875 -3.203125 L 2.71875 0 L 1.640625 0 L 1.640625 -10.09375 L 5.421875 -10.09375 C 6.710938 -10.09375 7.722656 -9.785156 8.453125 -9.171875 C 9.179688 -8.554688 9.546875 -7.710938 9.546875 -6.640625 C 9.546875 -5.847656 9.34375 -5.179688 8.9375 -4.640625 C 8.539062 -4.097656 7.972656 -3.707031 7.234375 -3.46875 L 9.703125 0 Z M 5.390625 -4.109375 C 6.390625 -4.109375 7.15625 -4.328125 7.6875 -4.765625 C 8.21875 -5.210938 8.484375 -5.835938 8.484375 -6.640625 C 8.484375 -7.453125 8.21875 -8.078125 7.6875 -8.515625 C 7.15625 -8.953125 6.390625 -9.171875 5.390625 -9.171875 L 2.71875 -9.171875 L 2.71875 -4.109375 Z M 5.390625 -4.109375 "/></g></g></g></svg>