<svg
          width="150"
          height="50"
          viewBox="0 0 420 120"
          fill="none"
          xmlns="http://www.w3.org/2000/svg"
        >
          <path d="M177 14.1H404.01" stroke="#231F20" strokeWidth="1.99986" />
          <path
            d="M75.4115 84.5052L71.0625 93.9531C67.9167 100.698 63.4167 102.797 52.1719 102.797H37.4844C33.1354 102.797 33.2865 101.297 33.2865 96.0521V22.7448C33.2865 17.4948 36.1354 16.1458 43.7813 15.25V13C33.4323 13.4479 22.3438 13.4479 12 13V15.25C19.6406 16.1458 22.4896 17.4948 22.4896 22.7448V96.349C22.4896 101.599 19.9427 103.245 12.2969 103.844V106.094H73.9115C74.9583 98.75 75.8594 92.3021 78.2604 84.5052H75.4115Z"
            fill="#231F20"
          />
          <path d="M180 105H407.01" stroke="#231F20" strokeWidth="1.99848" />
          <path
            d="M169.292 97.401V21.3958C169.292 17.4948 172.141 16.1458 179.339 15.25V13C172.891 13.4479 165.245 13.4479 158.651 13L131.219 88.5521L101.083 13C93.2917 13.4479 86.6927 13.4479 79.0469 13V15.25C86.6927 16.1458 90.1406 17.349 90.1406 21.6927V97.401C90.1406 102.495 87.4427 102.797 78 103.844V106.094C87.2917 105.646 96.8854 105.646 106.479 106.094V103.844C97.3385 102.797 94.1875 102.495 94.1875 97.401V24.3906L126.568 106.094H128.37L158.651 24.3906V97.401C158.651 102.495 155.802 102.948 148.005 103.844V106.094C158.349 105.646 169.594 105.646 179.786 106.094V103.844C172.141 102.948 169.292 102.495 169.292 97.401Z"
            fill="#231F20"
          />
          <path
            d="M204.188 86H199.026V69.2727H204.416C206.039 69.2727 207.427 69.6076 208.582 70.2773C209.736 70.9416 210.621 71.8973 211.236 73.1442C211.851 74.3857 212.159 75.8722 212.159 77.6037C212.159 79.3461 211.849 80.8462 211.228 82.104C210.607 83.3564 209.703 84.3202 208.516 84.9954C207.329 85.6651 205.886 86 204.188 86ZM201.051 84.2031H204.057C205.44 84.2031 206.586 83.9363 207.495 83.4027C208.405 82.8691 209.083 82.1095 209.529 81.1239C209.976 80.1384 210.199 78.965 210.199 77.6037C210.199 76.2533 209.978 75.0908 209.537 74.1161C209.096 73.136 208.437 72.3846 207.561 71.8619C206.684 71.3337 205.592 71.0696 204.286 71.0696H201.051V84.2031ZM224.757 86V69.2727H234.852V71.0696H226.782V76.7216H234.329V78.5185H226.782V84.2031H234.983V86H224.757ZM248.389 69.2727L253.355 83.3537H253.551L258.517 69.2727H260.64L254.498 86H252.407L246.265 69.2727H248.389ZM272.446 86V69.2727H282.541V71.0696H274.471V76.7216H282.018V78.5185H274.471V84.2031H282.672V86H272.446ZM295.392 86V69.2727H297.418V84.2031H305.193V86H295.392ZM330.992 77.6364C330.992 79.4006 330.673 80.9252 330.036 82.2102C329.399 83.4953 328.525 84.4863 327.414 85.1832C326.304 85.8802 325.035 86.2287 323.608 86.2287C322.182 86.2287 320.913 85.8802 319.802 85.1832C318.691 84.4863 317.817 83.4953 317.18 82.2102C316.543 80.9252 316.225 79.4006 316.225 77.6364C316.225 75.8722 316.543 74.3475 317.18 73.0625C317.817 71.7775 318.691 70.7865 319.802 70.0895C320.913 69.3925 322.182 69.044 323.608 69.044C325.035 69.044 326.304 69.3925 327.414 70.0895C328.525 70.7865 329.399 71.7775 330.036 73.0625C330.673 74.3475 330.992 75.8722 330.992 77.6364ZM329.032 77.6364C329.032 76.188 328.789 74.9656 328.305 73.9691C327.825 72.9727 327.175 72.2185 326.353 71.7067C325.536 71.1948 324.621 70.9389 323.608 70.9389C322.595 70.9389 321.678 71.1948 320.856 71.7067C320.039 72.2185 319.388 72.9727 318.904 73.9691C318.425 74.9656 318.185 76.188 318.185 77.6364C318.185 79.0848 318.425 80.3072 318.904 81.3036C319.388 82.3001 320.039 83.0542 320.856 83.5661C321.678 84.0779 322.595 84.3338 323.608 84.3338C324.621 84.3338 325.536 84.0779 326.353 83.5661C327.175 83.0542 327.825 82.3001 328.305 81.3036C328.789 80.3072 329.032 79.0848 329.032 77.6364ZM343.598 86V69.2727H349.25C350.562 69.2727 351.635 69.5096 352.468 69.9833C353.306 70.4516 353.927 71.0859 354.33 71.8864C354.733 72.6868 354.934 73.5798 354.934 74.5653C354.934 75.5509 354.733 76.4466 354.33 77.2525C353.932 78.0584 353.317 78.7009 352.484 79.18C351.651 79.6538 350.584 79.8906 349.282 79.8906H345.231V78.0938H349.217C350.115 78.0938 350.837 77.9386 351.381 77.6282C351.926 77.3178 352.321 76.8986 352.566 76.3704C352.816 75.8368 352.941 75.2351 352.941 74.5653C352.941 73.8956 352.816 73.2966 352.566 72.7685C352.321 72.2403 351.923 71.8265 351.373 71.527C350.823 71.2221 350.094 71.0696 349.184 71.0696H345.623V86H343.598ZM367.397 86V69.2727H377.492V71.0696H369.423V76.7216H376.97V78.5185H369.423V84.2031H377.623V86H367.397ZM390.343 86V69.2727H395.995C397.302 69.2727 398.375 69.496 399.213 69.9425C400.052 70.3835 400.673 70.9906 401.076 71.7638C401.479 72.5371 401.68 73.4164 401.68 74.402C401.68 75.3875 401.479 76.2615 401.076 77.0238C400.673 77.7861 400.055 78.3851 399.222 78.8207C398.388 79.2508 397.324 79.4659 396.028 79.4659H391.454V77.6364H395.963C396.856 77.6364 397.574 77.5057 398.119 77.2443C398.669 76.983 399.066 76.6127 399.311 76.1335C399.562 75.6489 399.687 75.0717 399.687 74.402C399.687 73.7322 399.562 73.1469 399.311 72.646C399.061 72.145 398.661 71.7584 398.111 71.4862C397.561 71.2085 396.834 71.0696 395.93 71.0696H392.369V86H390.343ZM398.217 78.4858L402.333 86H399.981L395.93 78.4858H398.217Z"
            fill="#16A34A"
          />
          <path
            d="M202.064 51L197.49 34.2727H199.548L203.044 47.8963H203.207L206.768 34.2727H209.055L212.616 47.8963H212.78L216.276 34.2727H218.334L213.76 51H211.669L207.977 37.6705H207.847L204.155 51H202.064ZM236.958 51V34.2727H247.053V36.0696H238.983V41.7216H246.53V43.5185H238.983V49.2031H247.183V51H236.958ZM266.804 51V34.2727H272.652C273.817 34.2727 274.778 34.4742 275.535 34.8771C276.292 35.2746 276.855 35.811 277.226 36.4862C277.596 37.1559 277.781 37.8991 277.781 38.7159C277.781 39.4347 277.653 40.0282 277.397 40.4964C277.147 40.9647 276.814 41.335 276.401 41.6072C275.992 41.8795 275.548 42.081 275.069 42.2116V42.375C275.581 42.4077 276.096 42.5874 276.613 42.9141C277.13 43.2408 277.563 43.709 277.912 44.3189C278.26 44.9287 278.434 45.6747 278.434 46.5568C278.434 47.3954 278.244 48.1495 277.863 48.8192C277.481 49.489 276.88 50.0199 276.058 50.4119C275.235 50.804 274.165 51 272.848 51H266.804ZM268.829 49.2031H272.848C274.171 49.2031 275.11 48.9472 275.666 48.4354C276.226 47.9181 276.507 47.2919 276.507 46.5568C276.507 45.9905 276.363 45.4678 276.074 44.9886C275.785 44.504 275.374 44.1174 274.841 43.8288C274.307 43.5348 273.675 43.3878 272.946 43.3878H268.829V49.2031ZM268.829 41.6236H272.586C273.196 41.6236 273.746 41.5038 274.236 41.2642C274.732 41.0246 275.124 40.687 275.412 40.2514C275.706 39.8158 275.853 39.304 275.853 38.7159C275.853 37.9808 275.597 37.3574 275.086 36.8455C274.574 36.3282 273.762 36.0696 272.652 36.0696H268.829V41.6236Z"
            fill="#16A34A"
          />
        </svg>